<svg width="180" height="29" viewBox="0 0 180 29" fill="none" xmlns="http://www.w3.org/2000/svg">
<g clip-path="url(#clip0)">
<path d="M10.1653 0.000816816C8.97445 -0.0160863 7.79471 0.229544 6.7111 0.719988C5.62749 1.21043 4.66703 1.93347 3.89899 2.83696V0.317232H0.0117188V26.2341H3.89899V16.6395C4.66814 17.5447 5.6278 18.2715 6.71043 18.7688C7.79306 19.2662 8.97233 19.5219 10.1653 19.5181C11.4228 19.5194 12.6677 19.2683 13.825 18.78C14.9824 18.2916 16.0283 17.576 16.9 16.6762C18.6922 14.8214 19.693 12.3508 19.693 9.78067C19.693 7.21058 18.6922 4.73996 16.9 2.88519C16.0325 1.97697 14.9883 1.25302 13.8307 0.757223C12.673 0.261423 11.4261 0.00408732 10.1653 0.000816816ZM10.1283 3.47364C13.588 3.47364 16.2974 6.21139 16.2974 9.70543C16.2974 13.1995 13.5297 16.0067 10.1283 16.0067C6.68616 16.0067 3.88538 13.1802 3.88538 9.70543C3.88538 6.31943 6.74447 3.46592 10.1283 3.46592V3.47364Z" fill="black"/>
<path d="M35.514 13.4437C34.2992 15.02 32.2196 15.9981 30.0874 15.9981C27.0203 15.9981 24.6802 14.0842 24.2001 11.2153H39.792L39.8075 11.0494C39.8813 10.1101 39.8277 9.16531 39.6481 8.24024C39.2961 5.97274 38.1536 3.89979 36.4198 2.38274C34.6715 0.849887 32.42 0.00268874 30.0874 0C28.1543 0.0156546 26.2687 0.59568 24.6654 1.66779C23.0621 2.7399 21.8122 4.25667 21.0713 6.02907C20.3304 7.80147 20.1314 9.75111 20.4991 11.635C20.8668 13.5189 21.7848 15.2537 23.1389 16.6232C24.0427 17.5432 25.1235 18.2734 26.3171 18.7705C27.5108 19.2677 28.7929 19.5216 30.0874 19.5173C33.8095 19.5173 37.4576 17.4316 38.962 14.4469L35.514 13.4437ZM24.204 8.12255C24.7288 5.42146 27.1525 3.47861 30.0524 3.47861C31.4112 3.45603 32.7345 3.90905 33.7904 4.75821C34.8463 5.60737 35.5673 6.79845 35.8269 8.12255H24.204Z" fill="black"/>
<path d="M56.3537 2.04321C54.8053 0.698047 52.8096 -0.0298688 50.7522 3.13928e-05C48.3596 3.13928e-05 46.2196 0.995574 44.8008 2.74935V0.316447H40.9135V19.224H44.8008V9.52908C44.8008 6.03503 47.0224 3.49794 50.0836 3.49794C52.4159 3.49794 54.9077 5.14367 54.9077 8.75926V19.2318H58.7949V7.74829C58.8008 5.44272 57.9534 3.47092 56.3537 2.04321Z" fill="black"/>
<path d="M76.1042 2.04404C74.5556 0.6992 72.5601 -0.0286682 70.5027 0.000864711C68.1081 0.000864711 65.9701 0.996407 64.5493 2.75018V0.31728H60.6523V19.2249H64.5396V9.52991C64.5396 6.03586 66.7612 3.49877 69.8224 3.49877C72.1548 3.49877 74.6465 5.1445 74.6465 8.76009V19.2326H78.5338V7.74912C78.5493 5.44355 77.7038 3.47176 76.1042 2.04404Z" fill="black"/>
<path d="M93.1207 0.316406L87.6708 14.6283L81.9118 0.316406H77.8438L85.7505 18.9828L82.7573 26.2352H86.7514L97.1849 0.316406H93.1207Z" fill="black"/>
<path d="M90.1303 22.7336C90.1212 22.2755 90.2046 21.8202 90.3755 21.3945C90.5464 20.9689 90.8013 20.5815 91.1254 20.2552C91.4494 19.9289 91.8359 19.6702 92.2622 19.4945C92.6885 19.3187 93.1459 19.2294 93.6075 19.2318C94.0776 19.2208 94.5451 19.3033 94.9827 19.4743C95.4202 19.6453 95.8189 19.9014 96.1553 20.2276C96.4916 20.5538 96.7589 20.9434 96.9414 21.3736C97.1239 21.8038 97.2179 22.2658 97.2179 22.7326C97.2179 23.1994 97.1239 23.6614 96.9414 24.0916C96.7589 24.5218 96.4916 24.9114 96.1553 25.2376C95.8189 25.5638 95.4202 25.8199 94.9827 25.9909C94.5451 26.1619 94.0776 26.2443 93.6075 26.2334C93.146 26.2358 92.6888 26.1465 92.2627 25.9709C91.8365 25.7953 91.4501 25.5368 91.1261 25.2107C90.8021 24.8846 90.5471 24.4974 90.376 24.072C90.205 23.6466 90.1215 23.1915 90.1303 22.7336Z" fill="#1F21CB"/>
<path d="M98.9414 19.2348H100.873V19.8811C101.102 19.6406 101.376 19.4483 101.681 19.3157C101.986 19.1831 102.315 19.1129 102.648 19.1094C103.064 19.1095 103.473 19.2063 103.845 19.3919C104.216 19.5775 104.538 19.8468 104.786 20.1782C105.071 19.8503 105.423 19.5856 105.818 19.4014C106.213 19.2173 106.643 19.1178 107.079 19.1094C108.386 19.1094 109.746 20.074 109.746 21.8818V26.2248H107.812V22.3102C107.812 21.4516 107.453 20.8574 106.679 20.8574C105.787 20.8574 105.4 21.4786 105.318 22.2561V26.2306H103.375V22.3102C103.375 21.4516 103.015 20.8574 102.242 20.8574C101.241 20.8574 100.868 21.6291 100.868 22.5475V26.2306H98.9414V19.2348Z" fill="black"/>
<path d="M110.812 24.1026C110.812 22.5186 112.012 21.9513 113.6 21.9513H115.613V21.6214C115.613 20.9751 115.03 20.7378 114.239 20.7378C113.625 20.7378 113.013 20.8825 112.812 21.4632L110.972 21.4902C110.972 20.0374 112.439 19.1133 114.198 19.1133C115.905 19.1133 117.438 20.0104 117.438 21.3976V26.221H115.613V25.5554C115.279 25.9239 114.519 26.3271 113.493 26.3271C112.467 26.3271 110.812 25.9509 110.812 24.1026ZM115.613 23.298H113.959C113.145 23.298 112.678 23.6279 112.746 24.1566C112.814 24.6852 113.33 24.7759 113.652 24.7759C114.571 24.7759 115.613 24.1469 115.613 23.298Z" fill="black"/>
<path d="M118.844 19.2352H120.776V20.1709C121.176 19.5381 121.977 18.9959 123.324 19.2062V21.2552C122.095 20.8076 120.776 21.4134 120.776 22.6559V26.2329H118.844V19.2352Z" fill="black"/>
<path d="M124.453 16.9883H126.385V22.0837L129.013 19.234H131.306L128.288 22.4406L131.382 26.2298H129.128L127.141 23.6696L126.381 24.4876V26.2241H124.449L124.453 16.9883Z" fill="black"/>
<path d="M131.391 22.733C131.396 21.8437 131.732 20.9876 132.334 20.3289C132.936 19.6702 133.761 19.2553 134.653 19.1637C135.544 19.0722 136.438 19.3104 137.163 19.8327C137.888 20.355 138.393 21.1247 138.582 21.9941C138.701 22.47 138.705 22.9669 138.596 23.4449H133.29C133.515 24.2514 134.195 24.6469 135.021 24.6469C135.631 24.6538 136.223 24.4429 136.689 24.0527L138.368 24.5273C137.785 25.6637 136.316 26.337 135.021 26.337C134.058 26.337 133.135 25.9573 132.454 25.2814C131.773 24.6056 131.391 23.6889 131.391 22.733ZM136.724 21.9941C136.595 21.6458 136.362 21.3452 136.055 21.1329C135.749 20.9205 135.384 20.8066 135.011 20.8066C134.637 20.8066 134.272 20.9205 133.966 21.1329C133.659 21.3452 133.426 21.6458 133.297 21.9941H136.724Z" fill="black"/>
<path d="M140.469 23.8943L140.48 20.8845H139.281V19.2349H140.48L140.494 17.6914H142.401L142.387 19.2349H144.422V20.8845H142.381L142.368 23.8807C142.368 24.3824 143.048 24.8705 144.506 24.3168V26.1651C142.321 26.7979 140.469 26.0069 140.469 23.8943Z" fill="black"/>
<path d="M145.652 19.2338H147.596V19.8126C148.136 19.3538 148.829 19.1092 149.54 19.1258C151.446 19.1258 153.038 20.7754 153.038 22.7298C153.038 24.7614 151.45 26.3338 149.54 26.3338C148.825 26.3453 148.131 26.0907 147.596 25.62V29.0002H145.652V19.2338ZM151.223 22.7317C151.224 22.4859 151.177 22.2421 151.083 22.0145C150.989 21.7869 150.851 21.58 150.676 21.4057C150.502 21.2314 150.294 21.0931 150.065 20.9988C149.836 20.9046 149.591 20.8562 149.343 20.8564C148.841 20.8564 148.359 21.0546 148.003 21.4074C147.648 21.7602 147.448 22.2386 147.448 22.7375C147.448 23.2364 147.648 23.7149 148.003 24.0677C148.359 24.4204 148.841 24.6186 149.343 24.6186C149.592 24.6176 149.837 24.568 150.066 24.4725C150.295 24.3771 150.503 24.2377 150.678 24.0624C150.852 23.8871 150.99 23.6794 151.084 23.451C151.177 23.2227 151.225 22.9782 151.223 22.7317Z" fill="black"/>
<path d="M154.16 16.9883H156.092V26.2298H154.16V16.9883Z" fill="black"/>
<path d="M157.16 24.1033C157.16 22.5193 158.362 21.9521 159.948 21.9521H161.961V21.6222C161.961 20.9758 161.378 20.7385 160.587 20.7385C159.975 20.7385 159.361 20.8832 159.16 21.464L157.32 21.491C157.32 20.0382 158.787 19.114 160.548 19.114C162.255 19.114 163.788 20.0112 163.788 21.3984V26.2217H161.961V25.5561C161.627 25.9246 160.867 26.3278 159.841 26.3278C158.814 26.3278 157.16 25.9516 157.16 24.1033ZM161.961 23.2988H160.307C159.495 23.2988 159.028 23.6287 159.094 24.1573C159.16 24.686 159.677 24.7766 160 24.7766C160.921 24.7766 161.961 24.1477 161.961 23.2988Z" fill="black"/>
<path d="M164.921 22.7315C164.921 21.773 165.304 20.8534 165.986 20.175C166.668 19.4967 167.594 19.115 168.56 19.114C169.286 19.1151 169.995 19.3352 170.593 19.7452C171.191 20.1552 171.649 20.7357 171.907 21.4099L170.148 21.9135C170.019 21.5983 169.8 21.3274 169.518 21.1347C169.235 20.9419 168.902 20.8357 168.56 20.8292C168.068 20.8512 167.605 21.0604 167.265 21.4133C166.925 21.7662 166.735 22.2356 166.735 22.7238C166.735 23.212 166.925 23.6814 167.265 24.0343C167.605 24.3872 168.068 24.5964 168.56 24.6184C168.902 24.6193 169.237 24.5178 169.52 24.3272C169.803 24.1365 170.022 23.8655 170.148 23.5496L171.907 24.0512C171.649 24.7243 171.19 25.3034 170.592 25.7115C169.994 26.1196 169.285 26.3372 168.56 26.3356C168.082 26.3366 167.609 26.2441 167.168 26.0634C166.727 25.8828 166.325 25.6175 165.987 25.2827C165.649 24.9479 165.381 24.5503 165.198 24.1125C165.015 23.6748 164.921 23.2055 164.921 22.7315Z" fill="black"/>
<path d="M172.707 22.733C172.712 21.8437 173.048 20.9876 173.65 20.3289C174.252 19.6702 175.078 19.2553 175.969 19.1637C176.86 19.0722 177.754 19.3104 178.479 19.8327C179.204 20.355 179.71 21.1247 179.898 21.9941C180.017 22.47 180.022 22.9669 179.912 23.4449H174.606C174.833 24.2514 175.512 24.6469 176.34 24.6469C176.949 24.6538 177.54 24.4429 178.005 24.0527L179.687 24.5273C179.103 25.6637 177.632 26.337 176.34 26.337C175.377 26.337 174.453 25.9574 173.772 25.2816C173.09 24.6057 172.708 23.689 172.707 22.733ZM178.04 21.9941C177.912 21.6458 177.678 21.3452 177.372 21.1329C177.065 20.9205 176.701 20.8066 176.327 20.8066C175.953 20.8066 175.589 20.9205 175.282 21.1329C174.976 21.3452 174.742 21.6458 174.614 21.9941H178.04Z" fill="black"/>
</g>
<defs>
<clipPath id="clip0">
<rect width="180" height="29" fill="white"/>
</clipPath>
</defs>
</svg>
